<svg id="visual" viewBox="0 0 900 600" width="100%" height="auto" xmlns="http://www.w3.org/2000/svg">
  <defs>
    <linearGradient id="waveGradient" x1="0" y1="0" x2="0" y2="1">
      <stop offset="0%" stop-color="#1E81B0" />
      <stop offset="100%" stop-color="#A2DFF7" />
    </linearGradient>
  </defs>
  <path d="M0 206L15 198C30 190 60 174 90 161.5C120 149 150 140 180 142.8C210 145.7 240 160.3 270 153.8C300 147.3 330 119.7 360 118.8C390 118 420 144 450 146.3C480 148.7 510 127.3 540 129C570 130.7 600 155.3 630 157.3C660 159.3 690 138.7 720 136.8C750 135 780 152 810 162.3C840 172.7 870 176.3 885 178.2L900 180L900 0L885 0C870 0 840 0 810 0C780 0 750 0 720 0C690 0 660 0 630 0C600 0 570 0 540 0C510 0 480 0 450 0C420 0 390 0 360 0C330 0 300 0 270 0C240 0 210 0 180 0C150 0 120 0 90 0C60 0 30 0 15 0L0 0Z" 
        fill="url(#waveGradient)" stroke-linecap="round" stroke-linejoin="miter" />
</svg>
